# xmcd
#
# Track frame offsets:
#	150
#	21553
#	41035
#	59563
#	76913
#	96795
#	120715
#	137978
#	164548
#
# Disc length: 2540 seconds
#
# Revision: 7
# Processed by: cddbd v1.5.2PL0 Copyright (c) Steve Scherf et al.
# Submitted via: audiograbber 1.83.01
#
DISCID=7f09ea09
DTITLE=Alice Cooper - The Studio Albums 1969-1983 [CD 15) - DaDa
DYEAR=1983
DGENRE=Rock
TTITLE0=DaDa
TTITLE1=Enough's Enough
TTITLE2=Former Lee Warmer
TTITLE3=No Man's Land
TTITLE4=Dyslexia
TTITLE5=Scarlet And Sheba
TTITLE6=I Love America
TTITLE7=Fresh Blood
TTITLE8=Pass The Gun Around
EXTD=
EXTT0=
EXTT1=
EXTT2=
EXTT3=
EXTT4=
EXTT5=
EXTT6=
EXTT7=
EXTT8=
PLAYORDER=
